<?xml version="1.0" encoding="utf-8"?>
<!-- Generator: Adobe Illustrator 25.2.0, SVG Export Plug-In . SVG Version: 6.00 Build 0)  -->
<svg version="1.1" id="Слой_1" xmlns="http://www.w3.org/2000/svg" xmlns:xlink="http://www.w3.org/1999/xlink" x="0px" y="0px"
	 viewBox="0 0 150 150" style="enable-background:new 0 0 150 150;" xml:space="preserve">
<style type="text/css">
	.st0{fill:#FFFFFF;}
</style>
<g transform="translate(0.000000,512.000000) scale(0.100000,-0.100000)">
	<path class="st0" d="M116.6,4429.4v-673.04h60.27h60.27l0.57-61.71l0.86-61.71l30.71,20.38l30.42,20.38l30.42-20.38l30.42-20.38
		v61.71v61.71h509.44h509.44v673.04v673.03H748.01H116.6V4429.4z M675.11,4644.65c30.71-14.93,51.09-48.22,51.09-83.52
		c0.29-50.8-40.18-90.7-91.84-90.7c-36.74,0-65.44,18.08-82.08,51.66c-8.04,16.36-9.47,21.81-9.18,40.76
		c0,25.26,6.31,41.62,22.67,59.98C594.18,4654.13,637.8,4662.73,675.11,4644.65z M487.7,4649.24c11.48-4.59,28.41-20.95,33.87-33.3
		c6.31-13.77,6.89-37.31,1.43-50.51c-10.62-25.54-27.84-36.45-62-39.03l-22.96-1.72v-26.69v-26.98h-24.4h-24.4v90.41v90.41h45.63
		C460.15,4651.83,483.96,4650.68,487.7,4649.24z M862.24,4646.37c36.74-18.94,46.21-67.73,18.94-97.87l-10.04-11.2l17.8-31
		c9.76-16.93,18.37-31.86,18.94-33c0.57-1.43-11.48-2.3-26.98-2.3h-28.13l-15.21,27.27c-14.93,26.12-15.79,27.27-25.26,27.27h-9.76
		v-27.27v-27.27h-25.83h-25.83v90.41v90.41h50.23C845.02,4651.83,853.06,4651.26,862.24,4646.37z M1069.46,4630.3v-21.53h-27.27
		h-27.27v-68.88v-68.88h-24.4h-24.4v68.88v68.88H940.3h-25.83v21.53v21.53h77.49h77.49V4630.3z M512.66,4406.44v-21.53h-37.31
		h-37.31v-15.79v-15.79h30.14h30.14v-20.09v-20.09h-30.14h-30.14v-33v-33h-24.4h-24.4v90.41v90.41h61.71h61.71V4406.44z
		 M658.47,4419.64c16.07-8.04,33-25.83,41.33-42.77c4.88-9.76,6.89-19.8,7.46-37.31c1.15-22.1,0.57-25.26-7.75-42.19
		c-10.04-20.09-24.68-34.73-45.92-44.77c-20.09-10.04-56.54-9.47-76.34,0.86c-64.57,33.87-70.89,119.68-11.77,159.58
		c18.94,12.63,27.84,14.93,56.25,13.77C640.1,4426.24,649.28,4424.52,658.47,4419.64z M785.33,4359.08v-68.88h40.18h40.18v-21.53
		v-21.53h-66.01h-66.01v90.41v90.41h25.83h25.83V4359.08z M937.44,4337.55v-90.41h-24.4h-24.4v90.41v90.41h24.4h24.4V4337.55z
		 M1097.88,4419.64c42.19-21.81,62-76.34,42.77-118.54c-10.04-21.53-25.26-37.89-44.77-47.36c-22.1-10.9-54.82-11.2-77.2-1.15
		c-17.8,8.04-39.03,29.56-47.64,48.5c-7.46,16.93-8.33,53.96-1.15,69.46c11.2,25.26,31,44.2,55.68,53.38
		C1042.2,4430.26,1081.8,4427.96,1097.88,4419.64z"/>
	<path class="st0" d="M609.96,4601.03c-17.22-14.64-21.81-40.18-11.2-63.14c9.76-22.1,36.45-30.42,56.54-18.08
		c24.97,14.93,27.55,60.27,4.59,80.36c-8.04,7.17-12.06,8.61-25.26,8.61C622.02,4608.78,617.71,4607.34,609.96,4601.03z"/>
	<path class="st0" d="M438.05,4590.12v-18.94l17.8,0.86c17.22,0.86,18.08,1.15,20.38,9.76c2.01,6.31,1.43,11.48-1.15,17.22
		c-3.73,7.46-5.74,8.33-20.67,9.18l-16.36,0.86V4590.12z"/>
	<path class="st0" d="M802.54,4590.12v-18.66h18.66c20.09,0,24.4,3.16,24.4,18.66s-4.3,18.66-24.4,18.66h-18.66V4590.12z"/>
	<path class="st0" d="M595.61,4378.31c-19.23-12.92-25.54-42.77-14.06-66.59c7.17-15.21,18.37-21.53,37.31-21.53
		c13.2,0,16.07,1.15,24.4,9.47c23.25,23.25,18.37,68.02-8.33,80.65C621.16,4386.63,607.09,4386.06,595.61,4378.31z"/>
	<path class="st0" d="M1035.02,4378.59c-19.52-13.49-26.12-42.77-14.35-66.87c7.17-15.21,18.37-21.53,37.31-21.53
		c12.91,0,16.07,1.15,24.4,9.47c17.22,17.22,20.09,45.92,6.89,67.44C1078.93,4384.62,1052.24,4390.08,1035.02,4378.59z"/>
</g>
<g>
</g>
<g>
</g>
<g>
</g>
<g>
</g>
</svg>
